<?xml version="1.0" standalone="no"?>
<!DOCTYPE svg PUBLIC "-//W3C//DTD SVG 20010904//EN"
 "http://www.w3.org/TR/2001/REC-SVG-20010904/DTD/svg10.dtd">
<svg version="1.0" xmlns="http://www.w3.org/2000/svg"
 width="299.000000pt" height="299.000000pt" viewBox="0 0 299.000000 299.000000"
 preserveAspectRatio="xMidYMid meet">
<metadata>
Created by potrace 1.11, written by Peter Selinger 2001-2013
</metadata>
<g transform="translate(0.000000,299.000000) scale(0.100000,-0.100000)"
fill="#000000" stroke="none">
<path d="M1108 2778 c-3 -7 -5 -72 -5 -145 -1 -161 2 -166 80 -164 l57 1 1
-78 c2 -401 5 -385 -63 -464 -50 -57 -58 -69 -58 -77 0 -5 -4 -11 -9 -13 -4
-1 -46 -52 -91 -113 -46 -60 -86 -112 -89 -115 -3 -3 -39 -50 -80 -105 -41
-55 -77 -102 -80 -105 -19 -16 -104 -136 -112 -157 -31 -81 14 -194 93 -234
42 -22 43 -22 743 -22 768 1 739 -2 801 61 36 36 59 107 51 159 -4 20 -22 59
-41 87 -29 42 -192 257 -239 316 -7 8 -28 35 -47 60 -19 25 -38 47 -42 48 -5
2 -8 10 -8 17 0 8 -6 18 -13 22 -7 4 -30 33 -52 63 -22 30 -42 57 -45 60 -3 3
-28 34 -55 70 l-50 65 0 226 0 227 60 1 c42 0 63 5 71 16 8 10 11 66 10 158
l-1 142 -391 3 c-308 2 -393 0 -396 -10z m710 -145 l-3 -88 -315 0 -315 0 -3
88 -3 87 321 0 321 0 -3 -87z m-133 -407 l1 -241 97 -128 c54 -71 102 -134
108 -140 29 -35 119 -156 119 -161 0 -6 -69 -26 -110 -32 -54 -8 -210 -4 -256
6 -27 6 -85 24 -129 40 -44 16 -107 35 -140 43 -63 14 -256 16 -313 3 l-33 -8
48 65 c26 35 91 120 143 188 54 71 95 134 96 149 2 14 3 122 3 241 l1 217 183
0 182 0 0 -242z m-474 -706 c29 -88 124 -118 206 -64 14 9 28 25 30 35 7 24 5
24 96 -5 116 -37 205 -45 337 -32 56 6 137 24 159 35 24 13 224 -252 229 -303
4 -41 -19 -90 -51 -108 -17 -10 -171 -13 -712 -14 -744 -1 -726 -3 -761 51
-31 48 -19 104 38 176 15 19 58 75 96 125 66 86 72 91 128 107 73 22 126 32
164 32 25 1 32 -4 41 -35z m155 15 c25 -6 25 -7 10 -24 -25 -28 -86 -14 -86
20 0 15 5 18 25 14 14 -3 37 -7 51 -10z"/>
<path d="M988 1441 c-38 -22 -67 -78 -64 -124 4 -47 32 -87 77 -108 85 -41
189 27 182 119 0 6 -1 21 -2 32 0 11 -16 36 -34 56 -28 31 -40 36 -82 39 -32
1 -60 -3 -77 -14z m100 -77 c26 -18 28 -50 5 -76 -33 -36 -93 -13 -93 37 0 23
32 55 55 55 6 0 21 -7 33 -16z"/>
<path d="M1553 1360 c-43 -26 -65 -63 -65 -108 1 -83 50 -135 128 -135 137 0
184 188 61 246 -46 22 -85 21 -124 -3z m99 -77 c22 -20 23 -56 2 -77 -35 -35
-98 -4 -91 45 3 22 37 48 61 49 5 0 18 -7 28 -17z"/>
<path d="M1983 1323 c-21 -8 -15 -48 10 -71 26 -25 47 -28 65 -10 17 17 15 30
-12 61 -23 26 -37 31 -63 20z"/>
<path d="M1282 1308 c-18 -18 -14 -42 11 -66 37 -35 77 -25 77 19 0 13 -50 59
-64 59 -7 0 -17 -5 -24 -12z"/>
<path d="M655 771 c-12 -12 12 -21 54 -21 l48 0 1 -122 c0 -155 -1 -148 17
-142 12 5 15 30 15 135 l0 129 50 0 c34 0 50 4 50 13 0 10 -27 13 -116 13 -63
0 -117 -2 -119 -5z"/>
<path d="M1689 778 c0 -4 -1 -155 0 -220 1 -47 5 -59 21 -68 22 -12 60 -5 60
11 0 5 -11 9 -25 9 l-25 0 0 135 c0 113 -2 135 -15 135 -8 0 -15 -1 -16 -2z"/>
<path d="M1800 640 c0 -138 0 -141 24 -151 17 -8 29 -8 42 -1 18 10 17 11 -8
21 l-28 11 0 130 c0 109 -2 130 -15 130 -13 0 -15 -22 -15 -140z"/>
<path d="M2130 630 c0 -131 2 -149 16 -143 8 3 13 11 10 18 -2 7 11 4 33 -8
44 -24 82 -18 116 19 83 89 -25 237 -119 163 l-26 -20 -1 38 c-1 21 0 48 1 61
1 14 -4 22 -14 22 -14 0 -16 -20 -16 -150z m142 30 c50 -39 38 -132 -19 -147
-62 -16 -93 11 -93 79 0 44 3 50 33 68 40 25 48 25 79 0z"/>
<path d="M885 688 c-10 -29 0 -201 13 -206 9 -3 12 16 12 70 0 65 3 77 23 96
13 12 31 22 40 22 9 0 17 7 17 15 0 22 -25 18 -58 -10 l-29 -24 5 24 c4 26
-15 36 -23 13z"/>
<path d="M1043 688 c-13 -6 -23 -15 -23 -21 0 -5 10 -6 23 -2 70 22 99 13 110
-35 6 -24 5 -25 -53 -25 -68 0 -92 -16 -92 -61 0 -57 75 -83 126 -43 21 17 26
18 26 5 0 -15 10 -19 28 -13 4 1 5 7 3 12 -2 6 -4 37 -6 70 -1 33 -5 70 -9 81
-12 39 -84 56 -133 32z m115 -120 c4 -21 -29 -58 -58 -63 -34 -6 -71 20 -67
48 7 42 117 56 125 15z"/>
<path d="M1220 694 c0 -3 19 -52 41 -109 28 -70 46 -102 56 -101 14 2 93 175
93 204 0 34 -25 -1 -52 -73 -17 -44 -34 -84 -38 -88 -3 -4 -22 33 -40 83 -19
49 -40 90 -47 90 -7 0 -13 -3 -13 -6z"/>
<path d="M1469 671 c-16 -16 -29 -38 -30 -48 0 -10 -2 -25 -4 -34 -9 -46 53
-109 107 -109 27 0 88 35 88 50 0 17 -26 11 -44 -9 -31 -35 -106 -10 -119 40
-5 18 1 19 82 19 48 0 90 3 93 6 4 3 2 20 -3 37 -21 78 -114 104 -170 48z
m112 -4 c22 -17 41 -55 30 -61 -10 -7 -133 -6 -144 1 -9 5 11 44 32 60 9 7 27
12 41 12 14 0 32 -5 41 -12z"/>
<path d="M1933 688 c-27 -13 -31 -34 -5 -23 60 26 112 7 112 -41 0 -20 -3 -22
-27 -15 -52 15 -123 -21 -123 -61 0 -25 44 -68 70 -68 12 0 35 7 51 16 28 14
32 14 43 -2 20 -26 23 -7 16 85 -6 71 -10 87 -29 103 -26 20 -74 23 -108 6z
m107 -129 c0 -47 -65 -72 -104 -40 -45 38 3 83 77 73 22 -4 27 -9 27 -33z"/>
</g>
</svg>
